Denne var etterlyst på norsk, så her kommer den:-)


Bli med Barbie inn i en helt ny verden med sommerfuglfeer! Mariposa er en nydelig sommerfuglfe som er glad i å lese og drømme om verden utenfor hjemmet sitt i landet Flutterfield. Flutterfield blir beskyttet av Dronningens skinnende, magiske lys, men når Dronningen blir forgiftet av den onde feen Henna, slokner de spesielle lysene en etter en. Nå er det opp til den modige Mariposa og vennene hennes til å dra på en reise utenfor de trygge bygrensene - på jakt etter en skjult motgift som vil redde Dronningen. Bli med sommerfuglfeene på et spennende eventyr som vil forandre dem for alltid! 



Regissør
Conrad Helten 

Originaltittel
Barbie - Mariposa 

Varighet
DVD: 1 tim 14 min  

Aldersgrense
Aldersgrense A 

Sjangre
Barn og familie, Tegnet/Animert 

Språk
DVD: Engelsk 

Dubbet
Norsk 

Releasedato
Produksjonsår: 2007


General
Complete name                            : Barbie - Mariposa og hennes venner, sommerfuglfeene- norsk tale- Robban.avi
Format                                   : AVI
Format/Info                              : Audio Video Interleave
Format profile                           : OpenDML
File size                                : 1.02 GiB
Duration                                 : 1h 14mn
Overall bit rate mode                    : Variable
Overall bit rate                         : 1 959 Kbps
Movie name                               : Barbie Mariposa- DVDrip norsk tale- Robban
Writing application                      : Lavf53.21.0
Original source form/Name                : BARBIE_MARIPOSA

Video
ID                                       : 0
Format                                   : AVC
Format/Info                              : Advanced Video Codec
Format profile                           : Main@L3.0
Format settings, CABAC                   : Yes
Format settings, ReFrames                : 2 frames
Codec ID                                 : H264
Duration                                 : 1h 14mn
Bit rate mode                            : Variable
Bit rate                                 : 1 496 Kbps
Maximum bit rate                         : 2 248 Kbps
Width                                    : 720 pixels
Height                                   : 406 pixels
Display aspect ratio                     : 16:9
Frame rate                               : 25.000 fps
Color space                              : YUV
Chroma subsampling                       : 4:2:0
Bit depth                                : 8 bits
Scan type                                : Progressive
Bits/(Pixel*Frame)                       : 0.205
Stream size                              : 797 MiB (76%)

Audio
ID                                       : 1
Format                                   : AC-3
Format/Info                              : Audio Coding 3
Mode extension                           : CM (complete main)
Format settings, Endianness              : Big
Codec ID                                 : 2000
Duration                                 : 1h 14mn
Bit rate mode                            : Constant
Bit rate                                 : 448 Kbps
Channel(s)                               : 6 channels
Channel positions                        : Front: L C R, Side: L R, LFE
Sampling rate                            : 48.0 KHz
Bit depth                                : 16 bits
Compression mode                         : Lossy
Stream size                              : 239 MiB (23%)
Alignment                                : Aligned on interleaves
Interleave, duration                     : 32 ms (0.80 video frame)


 
